<svg width="353.94" height="74.971" viewBox="0 0 353.94 74.971" xmlns="http://www.w3.org/2000/svg"><g id="svgGroup" stroke-linecap="round"  font-size="9pt" stroke="#000" stroke-width="0.25mm"  style="stroke:#000;stroke-width:0.25mm;"><path d="M 189.414 45.39 L 192.474 55.182 Q 193.724 53.855 195.182 52.079 A 94.435 94.435 0 0 0 196.095 50.949 A 136.619 136.619 0 0 0 197.923 48.597 Q 198.847 47.382 199.853 46.014 A 237.614 237.614 0 0 0 200.532 45.084 L 209.61 32.844 A 409.813 409.813 0 0 1 215.478 25.389 Q 226.949 11.187 231.272 9.193 A 4.983 4.983 0 0 1 231.54 9.078 Q 233.376 8.364 235.212 8.364 Q 236.844 8.364 237.986 8.919 A 4.303 4.303 0 0 1 238.527 9.231 Q 239.802 10.098 239.802 11.22 A 1.748 1.748 0 0 1 238.813 12.832 Q 238.092 13.233 236.844 13.362 A 16.123 16.123 0 0 0 235.227 14.448 Q 232.641 16.375 227.983 20.739 A 281.442 281.442 0 0 0 224.91 23.664 A 478.653 478.653 0 0 0 222.969 25.567 Q 220.594 27.909 218.876 29.679 A 153.036 153.036 0 0 0 218.331 30.243 A 81.476 81.476 0 0 0 217.18 31.464 Q 216.12 32.614 215.462 33.44 A 13.706 13.706 0 0 0 214.914 34.17 A 220.933 220.933 0 0 1 207.265 44.242 Q 200.159 53.027 193.8 58.65 A 26.665 26.665 0 0 0 198.169 65.025 A 18.834 18.834 0 0 0 212.466 70.992 A 23.942 23.942 0 0 0 219.59 69.873 A 28.946 28.946 0 0 0 222.003 69.003 Q 226.848 67.014 230.979 63.75 A 30.854 30.854 0 0 0 235.72 59.137 A 26.803 26.803 0 0 0 237.66 56.457 A 17.822 17.822 0 0 0 239.403 52.942 A 13.253 13.253 0 0 0 240.21 48.45 A 11.031 11.031 0 0 0 237.61 41.326 A 14.152 14.152 0 0 0 237.252 40.902 Q 234.294 37.536 230.01 36.108 L 228.48 35.904 Q 226.964 35.702 223.844 35.299 A 4328.046 4328.046 0 0 0 223.788 35.292 A 27.367 27.367 0 0 1 222.282 35.061 Q 218.994 34.452 218.994 33.354 A 1.474 1.474 0 0 1 219.315 32.449 Q 219.489 32.219 219.757 32.006 A 3.975 3.975 0 0 1 220.167 31.722 Q 221.34 31.008 222.564 31.008 A 5.084 5.084 0 0 1 223.36 31.075 Q 223.979 31.174 224.706 31.416 A 88.882 88.882 0 0 1 225.832 31.799 Q 226.364 31.985 226.836 32.158 A 53.377 53.377 0 0 1 226.899 32.181 L 227.868 32.538 Q 228.684 32.64 229.704 32.691 Q 230.724 32.742 231.744 32.742 A 36.704 36.704 0 0 0 238.93 32.064 A 30.212 30.212 0 0 0 243.984 30.6 A 20.796 20.796 0 0 0 247.626 28.721 Q 249.778 27.307 251.185 25.466 A 12.436 12.436 0 0 0 251.736 24.684 A 15.233 15.233 0 0 0 254.098 17.743 A 19.107 19.107 0 0 0 254.184 15.912 A 13.045 13.045 0 0 0 253.742 12.422 A 9.542 9.542 0 0 0 250.971 7.854 Q 247.758 4.896 242.505 3.621 Q 237.252 2.346 231.132 2.346 A 73.699 73.699 0 0 0 209.111 5.601 A 69.855 69.855 0 0 0 208.437 5.814 Q 197.676 9.282 189.822 17.34 Q 185.24 22.077 184.147 25.632 A 7.19 7.19 0 0 0 183.804 27.744 A 9.5 9.5 0 0 0 184.097 30.157 A 7.378 7.378 0 0 0 185.334 32.742 A 11.939 11.939 0 0 0 185.988 33.491 A 13.862 13.862 0 0 0 186.252 33.762 Q 186.762 34.272 187.476 34.782 A 0.906 0.906 0 0 1 187.542 34.825 Q 187.904 35.088 186.864 35.088 Q 180.54 33.66 180.54 26.622 A 14.544 14.544 0 0 1 182.862 18.86 Q 184.612 16.036 187.68 13.362 Q 193.188 8.568 200.277 5.61 Q 207.366 2.652 215.271 1.326 Q 223.176 0 230.928 0 Q 236.436 0 241.536 0.816 A 38.229 38.229 0 0 1 247.092 2.118 A 31.057 31.057 0 0 1 250.716 3.519 A 19.46 19.46 0 0 1 254.375 5.699 A 15.531 15.531 0 0 1 257.193 8.466 A 11.16 11.16 0 0 1 259.431 13.795 A 14.952 14.952 0 0 1 259.59 16.014 Q 259.59 22.338 256.224 26.112 A 19.457 19.457 0 0 1 251.175 30.11 A 26.223 26.223 0 0 1 247.146 31.926 A 44.532 44.532 0 0 1 235.297 34.273 A 51.576 51.576 0 0 1 232.662 34.374 A 16.604 16.604 0 0 1 236.912 35.109 A 13.846 13.846 0 0 1 240.159 36.618 Q 243.372 38.658 245.157 41.922 Q 246.942 45.186 246.942 49.062 Q 246.942 54.264 243.831 58.701 Q 240.72 63.138 235.518 66.351 A 45.347 45.347 0 0 1 224.482 71.236 A 50.446 50.446 0 0 1 224.094 71.349 Q 217.872 73.134 211.65 73.134 Q 195.534 73.134 189.72 62.118 Q 179.214 70.89 174.726 70.89 Q 172.584 70.89 171.411 68.85 A 8.879 8.879 0 0 1 170.256 64.89 A 10.692 10.692 0 0 1 170.238 64.26 A 19.894 19.894 0 0 1 170.947 59.195 Q 171.565 56.85 172.723 54.272 A 48.484 48.484 0 0 1 174.93 49.98 A 46.643 46.643 0 0 1 178.775 44.249 A 42.323 42.323 0 0 1 179.418 43.452 A 9.939 9.939 0 0 1 181.07 41.845 Q 182.858 40.494 184.926 40.494 A 3.42 3.42 0 0 1 187.492 41.68 Q 188.523 42.782 189.256 44.907 A 17.496 17.496 0 0 1 189.414 45.39 Z M 16.789 74.322 A 34.251 34.251 0 0 0 23.664 74.97 A 40.11 40.11 0 0 0 27.561 74.776 A 48.261 48.261 0 0 0 34.374 73.593 Q 39.984 72.216 45.441 69.768 Q 50.898 67.32 55.692 64.158 A 53.049 53.049 0 0 0 58.831 61.924 A 43.542 43.542 0 0 0 63.954 57.324 Q 64.412 56.866 64.683 56.391 A 2.818 2.818 0 0 0 65.076 54.978 A 2.119 2.119 0 0 0 65.058 54.692 Q 65.004 54.297 64.785 54.149 A 0.56 0.56 0 0 0 64.464 54.06 Q 63.648 54.06 61.914 55.896 Q 55.488 63.036 46.41 67.269 Q 37.332 71.502 27.642 71.502 A 33.557 33.557 0 0 1 22.907 71.18 A 25.682 25.682 0 0 1 16.065 69.258 A 21.379 21.379 0 0 1 15.442 68.969 A 17.796 17.796 0 0 1 8.16 62.679 Q 5.304 58.344 5.304 52.122 A 28.759 28.759 0 0 1 6.443 44.261 Q 7.693 39.847 10.318 35.222 A 64.274 64.274 0 0 1 15.912 27.03 Q 21.216 20.298 27.948 15.096 Q 34.68 9.894 42.381 6.936 Q 50.082 3.978 57.936 3.978 A 30.489 30.489 0 0 1 58.738 3.989 Q 65.134 4.157 69.36 7.038 A 9.795 9.795 0 0 1 73.41 12.933 A 15.387 15.387 0 0 1 73.848 16.728 Q 73.848 20.808 71.757 24.531 A 23.201 23.201 0 0 1 70.998 25.788 A 24.988 24.988 0 0 1 66.198 31.212 Q 62.73 34.17 58.599 35.904 Q 54.468 37.638 50.388 37.638 A 15.599 15.599 0 0 1 47.413 37.367 A 11.244 11.244 0 0 1 42.738 35.343 A 9.711 9.711 0 0 1 41.816 34.561 A 6.562 6.562 0 0 1 39.678 29.682 A 8.525 8.525 0 0 1 40.736 25.663 Q 42.136 23.015 45.39 20.4 Q 46.225 20.087 46.633 19.667 A 1.26 1.26 0 0 0 47.022 18.768 Q 47.022 18.443 46.698 18.377 A 0.936 0.936 0 0 0 46.512 18.36 Q 45.975 18.36 45.15 18.879 A 8.58 8.58 0 0 0 44.574 19.278 A 27.646 27.646 0 0 0 41.409 22.03 Q 39.881 23.598 38.956 25.183 A 9.647 9.647 0 0 0 37.536 30.09 A 7.615 7.615 0 0 0 39.468 35.23 A 11.231 11.231 0 0 0 41.718 37.179 A 16.01 16.01 0 0 0 47.243 39.494 A 22.136 22.136 0 0 0 52.02 39.984 Q 56.712 39.984 61.302 38.25 Q 65.892 36.516 69.717 33.456 Q 73.542 30.396 75.837 26.265 Q 78.132 22.134 78.132 17.34 A 21.18 21.18 0 0 0 78.132 17.276 Q 78.126 15.243 77.728 13.5 A 11.802 11.802 0 0 0 75.378 8.568 A 14.579 14.579 0 0 0 72.125 5.639 A 17.886 17.886 0 0 0 67.932 3.621 A 28.916 28.916 0 0 0 63.287 2.486 A 36.872 36.872 0 0 0 57.426 2.04 A 47.163 47.163 0 0 0 53.034 2.247 A 53.669 53.669 0 0 0 42.381 4.386 Q 34.68 6.732 27.693 10.914 Q 20.706 15.096 15.3 20.808 Q 8.67 27.846 4.335 36.21 A 42.94 42.94 0 0 0 3.56 37.782 A 36.387 36.387 0 0 0 0 53.346 A 27.587 27.587 0 0 0 0.125 56.008 A 20.194 20.194 0 0 0 6.171 68.952 A 18.784 18.784 0 0 0 9.335 71.435 Q 12.567 73.457 16.789 74.322 Z M 132.192 62.526 L 129.03 68.85 A 10.405 10.405 0 0 1 127.555 68.151 Q 126.834 67.73 126.35 67.243 A 3.133 3.133 0 0 1 125.358 64.974 A 7.676 7.676 0 0 1 125.904 62.563 Q 127.901 56.988 137.204 42.88 A 440.005 440.005 0 0 1 138.72 40.596 Q 151.674 21.216 156.57 17.748 A 1.664 1.664 0 0 1 156.949 17.587 Q 157.323 17.474 157.873 17.449 A 7.243 7.243 0 0 1 158.202 17.442 A 9.173 9.173 0 0 1 159.267 17.498 Q 161.364 17.745 161.364 19.074 Q 161.364 19.38 159.936 21.267 A 131.707 131.707 0 0 1 158.765 22.79 Q 157.705 24.149 156.366 25.806 Q 154.224 28.458 152.031 31.161 Q 150.523 33.019 149.281 34.54 A 809.169 809.169 0 0 1 148.206 35.853 Q 146.608 37.8 146.379 38.33 A 0.866 0.866 0 0 0 146.37 38.352 Q 154.304 34.255 159.48 33.659 A 14.724 14.724 0 0 1 161.16 33.558 Q 163.302 33.558 165.087 34.782 A 9.58 9.58 0 0 1 167.258 36.805 A 8.786 8.786 0 0 1 167.892 37.74 Q 168.912 39.474 168.708 41.106 Q 167.892 46.92 160.548 50.694 Q 155.923 53.166 151.921 53.706 A 16.35 16.35 0 0 1 149.736 53.856 Q 145.663 53.856 143.515 53.074 A 5.525 5.525 0 0 1 142.392 52.53 A 1.682 1.682 0 0 0 142.227 52.511 Q 141.983 52.494 141.784 52.561 A 0.913 0.913 0 0 0 141.423 52.785 Q 141.084 53.124 141.251 53.786 A 2.376 2.376 0 0 0 141.27 53.856 Q 144.126 66.504 150.756 66.504 A 7.868 7.868 0 0 0 152.949 66.154 Q 155.045 65.541 157.764 63.855 A 40.895 40.895 0 0 0 159.477 62.73 A 43.983 43.983 0 0 0 163.663 59.412 Q 167.229 56.24 171.054 51.714 A 3.713 3.713 0 0 1 171.437 51.377 Q 171.935 51 172.38 51 Q 172.89 51 172.89 51.612 Q 172.89 52.114 172.198 53.111 A 10.405 10.405 0 0 1 172.176 53.142 A 85.27 85.27 0 0 1 168.542 57.239 A 109.572 109.572 0 0 1 165.291 60.537 A 50.557 50.557 0 0 1 159.835 65.171 A 43.179 43.179 0 0 1 157.182 66.963 A 19.626 19.626 0 0 1 153.962 68.598 Q 151.486 69.564 149.124 69.564 Q 145.758 69.564 143.157 67.626 A 17.963 17.963 0 0 1 139.214 63.542 A 20.813 20.813 0 0 1 138.669 62.73 A 47.066 47.066 0 0 1 135.984 57.946 A 41.91 41.91 0 0 1 135.456 56.814 A 12.368 12.368 0 0 0 134.867 57.644 Q 134.595 58.062 134.315 58.55 A 24.266 24.266 0 0 0 133.977 59.16 A 395.632 395.632 0 0 0 133.367 60.303 Q 132.83 61.315 132.192 62.526 Z M 313.242 62.526 L 310.08 68.85 A 10.405 10.405 0 0 1 308.605 68.151 Q 307.884 67.73 307.4 67.243 A 3.133 3.133 0 0 1 306.408 64.974 A 7.676 7.676 0 0 1 306.954 62.563 Q 308.951 56.988 318.254 42.88 A 440.005 440.005 0 0 1 319.77 40.596 Q 332.724 21.216 337.62 17.748 A 1.664 1.664 0 0 1 337.999 17.587 Q 338.373 17.474 338.923 17.449 A 7.243 7.243 0 0 1 339.252 17.442 A 9.173 9.173 0 0 1 340.317 17.498 Q 342.414 17.745 342.414 19.074 Q 342.414 19.38 340.986 21.267 A 131.707 131.707 0 0 1 339.815 22.79 Q 338.755 24.149 337.416 25.806 Q 335.274 28.458 333.081 31.161 Q 331.573 33.019 330.331 34.54 A 809.169 809.169 0 0 1 329.256 35.853 Q 327.658 37.8 327.429 38.33 A 0.866 0.866 0 0 0 327.42 38.352 Q 335.354 34.255 340.53 33.659 A 14.724 14.724 0 0 1 342.21 33.558 Q 344.352 33.558 346.137 34.782 A 9.58 9.58 0 0 1 348.308 36.805 A 8.786 8.786 0 0 1 348.942 37.74 Q 349.962 39.474 349.758 41.106 Q 348.942 46.92 341.598 50.694 Q 336.973 53.166 332.971 53.706 A 16.35 16.35 0 0 1 330.786 53.856 Q 326.713 53.856 324.565 53.074 A 5.525 5.525 0 0 1 323.442 52.53 A 1.682 1.682 0 0 0 323.277 52.511 Q 323.033 52.494 322.834 52.561 A 0.913 0.913 0 0 0 322.473 52.785 Q 322.134 53.124 322.301 53.786 A 2.376 2.376 0 0 0 322.32 53.856 Q 325.176 66.504 331.806 66.504 A 7.868 7.868 0 0 0 333.999 66.154 Q 336.095 65.541 338.814 63.855 A 40.895 40.895 0 0 0 340.527 62.73 A 43.983 43.983 0 0 0 344.713 59.412 Q 348.279 56.24 352.104 51.714 A 3.713 3.713 0 0 1 352.487 51.377 Q 352.985 51 353.43 51 Q 353.94 51 353.94 51.612 Q 353.94 52.114 353.248 53.111 A 10.405 10.405 0 0 1 353.226 53.142 A 85.27 85.27 0 0 1 349.592 57.239 A 109.572 109.572 0 0 1 346.341 60.537 A 50.557 50.557 0 0 1 340.885 65.171 A 43.179 43.179 0 0 1 338.232 66.963 A 19.626 19.626 0 0 1 335.012 68.598 Q 332.536 69.564 330.174 69.564 Q 326.808 69.564 324.207 67.626 A 17.963 17.963 0 0 1 320.264 63.542 A 20.813 20.813 0 0 1 319.719 62.73 A 47.066 47.066 0 0 1 317.034 57.946 A 41.91 41.91 0 0 1 316.506 56.814 A 12.368 12.368 0 0 0 315.917 57.644 Q 315.645 58.062 315.365 58.55 A 24.266 24.266 0 0 0 315.027 59.16 A 395.632 395.632 0 0 0 314.417 60.303 Q 313.88 61.315 313.242 62.526 Z M 76.908 68.544 L 75.276 68.544 Q 72.726 68.544 71.298 66.147 Q 69.87 63.75 69.87 61.506 A 12.24 12.24 0 0 1 70.572 57.676 Q 71.777 54.056 75.052 49.294 A 81.684 81.684 0 0 1 78.744 44.37 Q 87.72 33.252 93.228 33.252 Q 97.377 33.252 98.217 36.756 A 8.621 8.621 0 0 1 98.43 38.76 A 9.814 9.814 0 0 1 98.37 39.82 A 11.97 11.97 0 0 1 98.277 40.494 A 56.318 56.318 0 0 1 98.111 41.438 A 66.542 66.542 0 0 1 97.92 42.432 A 0.51 0.51 0 0 0 98.12 42.6 Q 98.311 42.697 98.639 42.726 A 3.452 3.452 0 0 0 98.94 42.738 A 9.81 9.81 0 0 0 101.149 42.466 Q 103.109 42.011 105.468 40.8 Q 105.372 42.437 98.28 45.436 A 87.379 87.379 0 0 1 97.41 45.798 Q 98.532 49.164 90.678 58.65 Q 85.006 65.614 80.497 67.677 A 8.648 8.648 0 0 1 76.908 68.544 Z M 105.57 68.544 L 103.938 68.544 Q 101.388 68.544 99.96 66.147 Q 98.532 63.75 98.532 61.506 A 12.24 12.24 0 0 1 99.234 57.676 Q 100.439 54.056 103.714 49.294 A 81.684 81.684 0 0 1 107.406 44.37 Q 116.382 33.252 121.89 33.252 Q 126.039 33.252 126.879 36.756 A 8.621 8.621 0 0 1 127.092 38.76 A 9.814 9.814 0 0 1 127.032 39.82 A 11.97 11.97 0 0 1 126.939 40.494 A 56.318 56.318 0 0 1 126.773 41.438 A 66.542 66.542 0 0 1 126.582 42.432 A 0.51 0.51 0 0 0 126.782 42.6 Q 126.973 42.697 127.301 42.726 A 3.452 3.452 0 0 0 127.602 42.738 A 9.81 9.81 0 0 0 129.811 42.466 Q 131.771 42.011 134.13 40.8 Q 134.034 42.437 126.942 45.436 A 87.379 87.379 0 0 1 126.072 45.798 Q 127.194 49.164 119.34 58.65 Q 113.668 65.614 109.159 67.677 A 8.648 8.648 0 0 1 105.57 68.544 Z M 257.958 68.544 L 256.326 68.544 Q 253.776 68.544 252.348 66.147 Q 250.92 63.75 250.92 61.506 A 12.24 12.24 0 0 1 251.622 57.676 Q 252.827 54.056 256.102 49.294 A 81.684 81.684 0 0 1 259.794 44.37 Q 268.77 33.252 274.278 33.252 Q 278.427 33.252 279.267 36.756 A 8.621 8.621 0 0 1 279.48 38.76 A 9.814 9.814 0 0 1 279.42 39.82 A 11.97 11.97 0 0 1 279.327 40.494 A 56.318 56.318 0 0 1 279.161 41.438 A 66.542 66.542 0 0 1 278.97 42.432 A 0.51 0.51 0 0 0 279.17 42.6 Q 279.361 42.697 279.689 42.726 A 3.452 3.452 0 0 0 279.99 42.738 A 9.81 9.81 0 0 0 282.199 42.466 Q 284.159 42.011 286.518 40.8 Q 286.422 42.437 279.33 45.436 A 87.379 87.379 0 0 1 278.46 45.798 Q 279.582 49.164 271.728 58.65 Q 266.056 65.614 261.547 67.677 A 8.648 8.648 0 0 1 257.958 68.544 Z M 286.62 68.544 L 284.988 68.544 Q 282.438 68.544 281.01 66.147 Q 279.582 63.75 279.582 61.506 A 12.24 12.24 0 0 1 280.284 57.676 Q 281.489 54.056 284.764 49.294 A 81.684 81.684 0 0 1 288.456 44.37 Q 297.432 33.252 302.94 33.252 Q 307.089 33.252 307.929 36.756 A 8.621 8.621 0 0 1 308.142 38.76 A 9.814 9.814 0 0 1 308.082 39.82 A 11.97 11.97 0 0 1 307.989 40.494 A 56.318 56.318 0 0 1 307.823 41.438 A 66.542 66.542 0 0 1 307.632 42.432 A 0.51 0.51 0 0 0 307.832 42.6 Q 308.023 42.697 308.351 42.726 A 3.452 3.452 0 0 0 308.652 42.738 A 9.81 9.81 0 0 0 310.861 42.466 Q 312.821 42.011 315.18 40.8 Q 315.084 42.437 307.992 45.436 A 87.379 87.379 0 0 1 307.122 45.798 Q 308.244 49.164 300.39 58.65 Q 294.718 65.614 290.209 67.677 A 8.648 8.648 0 0 1 286.62 68.544 Z M 77.112 65.484 A 6.682 6.682 0 0 0 79.912 64.783 Q 83.439 63.142 88.133 57.659 A 65.696 65.696 0 0 0 88.332 57.426 A 73.561 73.561 0 0 0 90.875 54.254 Q 94.962 48.827 94.962 46.104 Q 93.724 45.408 92.015 43.066 A 36.68 36.68 0 0 1 90.882 41.412 A 4.476 4.476 0 0 0 88.89 41.968 Q 86.252 43.305 82.437 47.855 A 70.851 70.851 0 0 0 80.886 49.776 Q 74.658 57.685 74.658 62.049 A 5.886 5.886 0 0 0 74.664 62.322 Q 74.766 65.484 77.112 65.484 Z M 105.774 65.484 A 6.682 6.682 0 0 0 108.574 64.783 Q 112.101 63.142 116.795 57.659 A 65.696 65.696 0 0 0 116.994 57.426 A 73.561 73.561 0 0 0 119.537 54.254 Q 123.624 48.827 123.624 46.104 Q 122.386 45.408 120.677 43.066 A 36.68 36.68 0 0 1 119.544 41.412 A 4.476 4.476 0 0 0 117.552 41.968 Q 114.914 43.305 111.099 47.855 A 70.851 70.851 0 0 0 109.548 49.776 Q 103.32 57.685 103.32 62.049 A 5.886 5.886 0 0 0 103.326 62.322 Q 103.428 65.484 105.774 65.484 Z M 258.162 65.484 A 6.682 6.682 0 0 0 260.962 64.783 Q 264.489 63.142 269.183 57.659 A 65.696 65.696 0 0 0 269.382 57.426 A 73.561 73.561 0 0 0 271.925 54.254 Q 276.012 48.827 276.012 46.104 Q 274.774 45.408 273.065 43.066 A 36.68 36.68 0 0 1 271.932 41.412 A 4.476 4.476 0 0 0 269.94 41.968 Q 267.302 43.305 263.487 47.855 A 70.851 70.851 0 0 0 261.936 49.776 Q 255.708 57.685 255.708 62.049 A 5.886 5.886 0 0 0 255.714 62.322 Q 255.816 65.484 258.162 65.484 Z M 286.824 65.484 A 6.682 6.682 0 0 0 289.624 64.783 Q 293.151 63.142 297.845 57.659 A 65.696 65.696 0 0 0 298.044 57.426 A 73.561 73.561 0 0 0 300.587 54.254 Q 304.674 48.827 304.674 46.104 Q 303.436 45.408 301.727 43.066 A 36.68 36.68 0 0 1 300.594 41.412 A 4.476 4.476 0 0 0 298.602 41.968 Q 295.964 43.305 292.149 47.855 A 70.851 70.851 0 0 0 290.598 49.776 Q 284.37 57.685 284.37 62.049 A 5.886 5.886 0 0 0 284.376 62.322 Q 284.478 65.484 286.824 65.484 Z M 143.208 51.204 A 15.056 15.056 0 0 0 146.356 50.836 Q 150.125 50.025 155.244 47.43 A 32.902 32.902 0 0 0 158.583 45.531 Q 161.916 43.342 163.125 41.027 A 5.723 5.723 0 0 0 163.812 38.352 Q 163.812 37.716 163.253 37.079 A 4.111 4.111 0 0 0 162.894 36.72 A 3.63 3.63 0 0 0 162.176 36.215 A 2.589 2.589 0 0 0 160.956 35.904 Q 156.979 35.904 152.044 38.138 A 43.24 43.24 0 0 0 148.104 40.188 A 34.76 34.76 0 0 0 143.974 43.095 Q 139.545 46.765 138.312 50.898 A 21.424 21.424 0 0 1 139.078 50.913 Q 139.992 50.946 141.219 51.051 Q 143.004 51.204 143.208 51.204 Z M 324.258 51.204 A 15.056 15.056 0 0 0 327.406 50.836 Q 331.175 50.025 336.294 47.43 A 32.902 32.902 0 0 0 339.633 45.531 Q 342.966 43.342 344.175 41.027 A 5.723 5.723 0 0 0 344.862 38.352 Q 344.862 37.716 344.303 37.079 A 4.111 4.111 0 0 0 343.944 36.72 A 3.63 3.63 0 0 0 343.226 36.215 A 2.589 2.589 0 0 0 342.006 35.904 Q 338.029 35.904 333.094 38.138 A 43.24 43.24 0 0 0 329.154 40.188 A 34.76 34.76 0 0 0 325.024 43.095 Q 320.595 46.765 319.362 50.898 A 21.424 21.424 0 0 1 320.128 50.913 Q 321.042 50.946 322.269 51.051 Q 324.054 51.204 324.258 51.204 Z M 188.598 59.262 L 188.292 58.854 Q 184.637 46.703 182.292 45.436 A 1.11 1.11 0 0 0 181.764 45.288 A 0.232 0.232 0 0 0 181.71 45.297 Q 181.581 45.329 181.265 45.487 A 8.728 8.728 0 0 0 181.254 45.492 Q 173.706 56.406 173.706 63.036 Q 173.706 64.464 174.267 66.504 Q 174.828 68.544 176.052 68.544 A 4.485 4.485 0 0 0 177.84 68.068 Q 181.419 66.441 188.598 59.262 Z" vector-effect="non-scaling-stroke"/></g></svg>