<svg width="449.501" height="75.701" viewBox="0 0 449.501 75.701" xmlns="http://www.w3.org/2000/svg"><g id="svgGroup" stroke-linecap="round" fill-rule="evenodd" font-size="9pt" stroke="#000" stroke-width="0.25mm" style="stroke:#000;stroke-width:0.25mm;"><path d="M 57.501 5.7 L 52.601 15.7 A 21.018 21.018 0 0 0 42.599 10.854 A 29.942 29.942 0 0 0 36.701 10.3 A 24.03 24.03 0 0 0 26.897 12.293 A 23.311 23.311 0 0 0 24.201 13.7 Q 18.601 17.1 15.401 23.4 A 29.15 29.15 0 0 0 12.614 32.293 A 38.038 38.038 0 0 0 12.201 38 A 35.071 35.071 0 0 0 13.206 46.532 A 30.011 30.011 0 0 0 15.051 51.8 Q 17.901 58 23.401 61.6 A 21.88 21.88 0 0 0 32.283 64.899 A 28.642 28.642 0 0 0 36.501 65.2 A 31.517 31.517 0 0 0 51.183 61.508 A 38.523 38.523 0 0 0 53.501 60.2 L 56.801 69.7 A 9.915 9.915 0 0 1 55.275 70.813 Q 53.544 71.863 50.765 72.87 A 51.728 51.728 0 0 1 48.751 73.55 Q 42.901 75.4 36.901 75.4 A 42.874 42.874 0 0 1 26.884 74.28 A 33.543 33.543 0 0 1 17.151 70.3 Q 8.801 65.2 4.401 56.65 A 40.105 40.105 0 0 1 0.04 39.716 A 47.113 47.113 0 0 1 0.001 37.8 A 42.878 42.878 0 0 1 1.504 26.265 A 36.823 36.823 0 0 1 4.751 18.3 Q 9.501 9.7 18.101 4.85 Q 26.701 0 37.601 0 A 40.385 40.385 0 0 1 43.752 0.452 A 34.213 34.213 0 0 1 46.751 1.05 A 50.296 50.296 0 0 1 49.734 1.88 Q 52.051 2.606 53.801 3.45 A 36.336 36.336 0 0 1 55.064 4.087 Q 56.822 5.022 57.501 5.7 Z M 205.601 48 L 223.001 74.7 L 210.301 74.7 L 201.001 59.7 L 198.401 54.6 L 192.401 61.1 L 192.401 74.7 L 182.001 74.7 L 182.001 1.2 L 192.301 1.2 L 192.301 41.5 L 192.101 49.3 L 209.601 28.8 L 222.901 28.8 L 205.601 48 Z M 432.101 48 L 449.501 74.7 L 436.801 74.7 L 427.501 59.7 L 424.901 54.6 L 418.901 61.1 L 418.901 74.7 L 408.501 74.7 L 408.501 1.2 L 418.801 1.2 L 418.801 41.5 L 418.601 49.3 L 436.101 28.8 L 449.401 28.8 L 432.101 48 Z M 232.301 74.7 L 232.301 1.2 L 251.001 1.2 A 73.799 73.799 0 0 1 257.825 1.491 Q 268.02 2.442 272.001 6.5 A 17.604 17.604 0 0 1 277.201 19.242 A 21.528 21.528 0 0 1 277.201 19.3 Q 277.201 24.3 275.001 28.75 A 13.947 13.947 0 0 1 268.445 35.189 A 17.492 17.492 0 0 1 268.001 35.4 A 24.622 24.622 0 0 1 272.53 37 Q 275.166 38.253 277.022 40.068 A 13.825 13.825 0 0 1 278.451 41.7 A 16.945 16.945 0 0 1 281.76 50.973 A 21.299 21.299 0 0 1 281.801 52.3 A 34.707 34.707 0 0 1 281.39 57.772 A 25.162 25.162 0 0 1 279.801 63.5 A 13.18 13.18 0 0 1 276.595 68.025 Q 274.552 69.95 271.501 71.5 Q 265.201 74.7 253.301 74.7 L 232.301 74.7 Z M 89.101 75.7 Q 82.001 75.7 76.501 72.5 Q 71.001 69.3 68.001 63.8 A 24.832 24.832 0 0 1 65.016 52.536 A 29.377 29.377 0 0 1 65.001 51.6 A 25.594 25.594 0 0 1 66.874 41.78 A 24.57 24.57 0 0 1 67.951 39.5 Q 70.901 34 76.401 30.8 Q 81.901 27.6 89.101 27.6 Q 96.301 27.6 101.751 30.8 Q 107.201 34 110.151 39.5 A 25.101 25.101 0 0 1 113.098 51.189 A 29.305 29.305 0 0 1 113.101 51.6 Q 113.101 58.3 110.101 63.8 Q 107.101 69.3 101.651 72.5 A 23.268 23.268 0 0 1 92.338 75.524 A 29.148 29.148 0 0 1 89.101 75.7 Z M 146.001 75.7 Q 138.901 75.7 133.401 72.5 Q 127.901 69.3 124.901 63.8 A 24.832 24.832 0 0 1 121.916 52.536 A 29.377 29.377 0 0 1 121.901 51.6 A 25.594 25.594 0 0 1 123.774 41.78 A 24.57 24.57 0 0 1 124.851 39.5 Q 127.801 34 133.301 30.8 Q 138.801 27.6 146.001 27.6 Q 153.201 27.6 158.651 30.8 Q 164.101 34 167.051 39.5 A 25.101 25.101 0 0 1 169.998 51.189 A 29.305 29.305 0 0 1 170.001 51.6 Q 170.001 58.3 167.001 63.8 Q 164.001 69.3 158.551 72.5 A 23.268 23.268 0 0 1 149.238 75.524 A 29.148 29.148 0 0 1 146.001 75.7 Z M 315.601 75.7 Q 308.501 75.7 303.001 72.5 Q 297.501 69.3 294.501 63.8 A 24.832 24.832 0 0 1 291.516 52.536 A 29.377 29.377 0 0 1 291.501 51.6 A 25.594 25.594 0 0 1 293.374 41.78 A 24.57 24.57 0 0 1 294.451 39.5 Q 297.401 34 302.901 30.8 Q 308.401 27.6 315.601 27.6 Q 322.801 27.6 328.251 30.8 Q 333.701 34 336.651 39.5 A 25.101 25.101 0 0 1 339.598 51.189 A 29.305 29.305 0 0 1 339.601 51.6 Q 339.601 58.3 336.601 63.8 Q 333.601 69.3 328.151 72.5 A 23.268 23.268 0 0 1 318.838 75.524 A 29.148 29.148 0 0 1 315.601 75.7 Z M 372.501 75.7 Q 365.401 75.7 359.901 72.5 Q 354.401 69.3 351.401 63.8 A 24.832 24.832 0 0 1 348.416 52.536 A 29.377 29.377 0 0 1 348.401 51.6 A 25.594 25.594 0 0 1 350.274 41.78 A 24.57 24.57 0 0 1 351.351 39.5 Q 354.301 34 359.801 30.8 Q 365.301 27.6 372.501 27.6 Q 379.701 27.6 385.151 30.8 Q 390.601 34 393.551 39.5 A 25.101 25.101 0 0 1 396.498 51.189 A 29.305 29.305 0 0 1 396.501 51.6 Q 396.501 58.3 393.501 63.8 Q 390.501 69.3 385.051 72.5 A 23.268 23.268 0 0 1 375.738 75.524 A 29.148 29.148 0 0 1 372.501 75.7 Z M 243.301 65.3 L 254.801 65.3 A 35.401 35.401 0 0 0 258.919 65.079 Q 263.193 64.576 265.603 62.93 A 7.446 7.446 0 0 0 267.051 61.65 A 12.798 12.798 0 0 0 269.992 55.158 A 17.519 17.519 0 0 0 270.201 52.4 A 12.467 12.467 0 0 0 269.736 48.901 A 9.211 9.211 0 0 0 266.601 44.2 Q 264.016 42.118 259.524 41.531 A 29.575 29.575 0 0 0 255.701 41.3 L 243.301 41.3 L 243.301 65.3 Z M 89.401 66.9 A 12.549 12.549 0 0 0 93.671 66.204 A 10.698 10.698 0 0 0 98.551 62.6 A 15.567 15.567 0 0 0 101.54 55.829 A 21.541 21.541 0 0 0 101.901 51.8 A 19.419 19.419 0 0 0 101.174 46.374 A 15.593 15.593 0 0 0 98.301 40.85 A 11.475 11.475 0 0 0 89.976 36.446 A 14.772 14.772 0 0 0 88.801 36.4 Q 83.101 36.4 79.651 40.8 A 15.945 15.945 0 0 0 76.521 47.983 A 21.856 21.856 0 0 0 76.201 51.8 A 18.286 18.286 0 0 0 76.957 57.169 A 14.977 14.977 0 0 0 79.901 62.55 A 11.812 11.812 0 0 0 88.496 66.873 A 14.835 14.835 0 0 0 89.401 66.9 Z M 146.301 66.9 A 12.549 12.549 0 0 0 150.571 66.204 A 10.698 10.698 0 0 0 155.451 62.6 A 15.567 15.567 0 0 0 158.44 55.829 A 21.541 21.541 0 0 0 158.801 51.8 A 19.419 19.419 0 0 0 158.074 46.374 A 15.593 15.593 0 0 0 155.201 40.85 A 11.475 11.475 0 0 0 146.876 36.446 A 14.772 14.772 0 0 0 145.701 36.4 Q 140.001 36.4 136.551 40.8 A 15.945 15.945 0 0 0 133.421 47.983 A 21.856 21.856 0 0 0 133.101 51.8 A 18.286 18.286 0 0 0 133.857 57.169 A 14.977 14.977 0 0 0 136.801 62.55 A 11.812 11.812 0 0 0 145.396 66.873 A 14.835 14.835 0 0 0 146.301 66.9 Z M 315.901 66.9 A 12.549 12.549 0 0 0 320.171 66.204 A 10.698 10.698 0 0 0 325.051 62.6 A 15.567 15.567 0 0 0 328.04 55.829 A 21.541 21.541 0 0 0 328.401 51.8 A 19.419 19.419 0 0 0 327.674 46.374 A 15.593 15.593 0 0 0 324.801 40.85 A 11.475 11.475 0 0 0 316.476 36.446 A 14.772 14.772 0 0 0 315.301 36.4 Q 309.601 36.4 306.151 40.8 A 15.945 15.945 0 0 0 303.021 47.983 A 21.856 21.856 0 0 0 302.701 51.8 A 18.286 18.286 0 0 0 303.457 57.169 A 14.977 14.977 0 0 0 306.401 62.55 A 11.812 11.812 0 0 0 314.996 66.873 A 14.835 14.835 0 0 0 315.901 66.9 Z M 372.801 66.9 A 12.549 12.549 0 0 0 377.071 66.204 A 10.698 10.698 0 0 0 381.951 62.6 A 15.567 15.567 0 0 0 384.94 55.829 A 21.541 21.541 0 0 0 385.301 51.8 A 19.419 19.419 0 0 0 384.574 46.374 A 15.593 15.593 0 0 0 381.701 40.85 A 11.475 11.475 0 0 0 373.376 36.446 A 14.772 14.772 0 0 0 372.201 36.4 Q 366.501 36.4 363.051 40.8 A 15.945 15.945 0 0 0 359.921 47.983 A 21.856 21.856 0 0 0 359.601 51.8 A 18.286 18.286 0 0 0 360.357 57.169 A 14.977 14.977 0 0 0 363.301 62.55 A 11.812 11.812 0 0 0 371.896 66.873 A 14.835 14.835 0 0 0 372.801 66.9 Z M 243.301 32.4 L 252.801 32.4 Q 259.901 32.4 262.901 28.95 Q 265.901 25.5 265.901 20.2 A 9.195 9.195 0 0 0 264.772 15.515 Q 262.624 11.807 256.388 10.955 A 30.297 30.297 0 0 0 252.301 10.7 L 243.301 10.7 L 243.301 32.4 Z" vector-effect="non-scaling-stroke"/></g></svg>